<?xml version="1.0" standalone="no"?>
<!DOCTYPE svg PUBLIC "-//W3C//DTD SVG 20010904//EN"
 "http://www.w3.org/TR/2001/REC-SVG-20010904/DTD/svg10.dtd">
<svg version="1.0" xmlns="http://www.w3.org/2000/svg"
 width="512.000000pt" height="512.000000pt" viewBox="0 0 512.000000 512.000000"
 preserveAspectRatio="xMidYMid meet">

<g transform="translate(0.000000,512.000000) scale(0.100000,-0.100000)"
fill="#000000" stroke="none">
<path d="M1552 4920 c-157 -56 -267 -173 -307 -325 -11 -44 -15 -112 -15 -261
0 -174 3 -211 20 -267 41 -132 140 -240 267 -293 32 -13 57 -29 55 -35 -1 -6
-61 -101 -132 -211 -76 -116 -130 -210 -130 -224 0 -29 32 -64 59 -64 34 0 60
33 209 265 l148 230 392 3 392 2 0 -230 c0 -217 1 -231 20 -250 27 -27 56 -25
85 5 l25 24 0 264 c0 246 -1 266 -19 288 l-19 24 -499 5 -498 5 -57 28 c-72
35 -140 110 -168 185 -20 52 -21 72 -18 272 3 211 4 216 30 265 36 68 101 128
173 162 l60 28 940 0 940 0 56 -26 c79 -37 133 -90 171 -167 l33 -67 0 -215 0
-215 -33 -67 c-36 -73 -87 -124 -161 -160 -44 -22 -59 -23 -374 -28 l-329 -5
-19 -24 c-24 -30 -24 -56 1 -81 19 -19 33 -20 283 -20 l262 0 154 -241 c99
-155 163 -245 178 -252 38 -17 77 9 80 53 3 30 -17 65 -131 240 -127 194 -133
205 -112 214 99 43 139 68 192 121 71 70 110 140 130 234 18 89 18 373 0 462
-36 167 -156 300 -317 350 -58 18 -106 19 -1012 19 -913 -1 -954 -2 -1005 -20z"/>
<path d="M2535 4609 c-23 -12 -285 -459 -285 -487 0 -10 10 -28 23 -40 23 -21
30 -22 288 -22 292 0 309 3 309 59 0 31 -238 455 -272 484 -23 19 -34 20 -63
6z m93 -299 c34 -60 62 -112 62 -115 0 -3 -58 -5 -130 -5 -71 0 -130 3 -130 6
0 10 124 224 130 224 3 0 33 -50 68 -110z"/>
<path d="M1572 4584 c-22 -15 -22 -19 -22 -243 0 -208 2 -229 18 -244 27 -24
436 -25 470 -1 22 15 22 19 22 244 0 225 0 229 -22 244 -19 13 -59 16 -233 16
-174 0 -214 -3 -233 -16z m368 -244 l0 -130 -135 0 -135 0 0 130 0 130 135 0
135 0 0 -130z"/>
<path d="M3238 4567 c-110 -35 -178 -130 -178 -248 0 -233 274 -343 440 -177
106 105 91 296 -29 383 -71 52 -154 67 -233 42z m153 -140 c22 -15 39 -38 49
-65 40 -117 -89 -218 -191 -149 -42 28 -59 60 -59 114 0 99 116 157 201 100z"/>
<path d="M2528 3070 c-63 -11 -143 -56 -184 -104 -104 -121 -96 -316 18 -427
65 -63 119 -84 223 -84 74 0 97 4 132 23 77 40 93 96 40 136 l-27 20 -54 -27
c-130 -66 -263 1 -282 144 -8 64 35 144 96 177 95 50 206 13 257 -87 31 -60
42 -71 73 -71 38 0 72 42 63 79 -34 143 -200 247 -355 221z"/>
<path d="M3867 3065 c-65 -24 -114 -71 -149 -143 -29 -58 -33 -77 -33 -142 1
-121 61 -221 169 -278 44 -23 63 -27 141 -27 78 0 97 4 140 27 113 60 170 154
170 283 0 70 -4 87 -30 135 -26 48 -34 55 -63 58 -39 4 -72 -20 -72 -52 0 -12
9 -39 20 -61 49 -97 8 -208 -95 -256 -51 -23 -89 -23 -140 0 -102 47 -144 156
-96 249 24 47 45 66 104 92 60 27 77 61 49 99 -23 31 -61 36 -115 16z"/>
<path d="M1054 3060 c-18 -6 -53 -25 -80 -42 -162 -109 -189 -323 -59 -466 88
-98 185 -101 185 -6 0 17 -14 34 -49 59 -125 90 -118 261 14 325 173 84 338
-117 226 -276 -36 -52 -39 -82 -11 -112 29 -31 61 -27 98 11 81 84 102 230 49
339 -31 62 -84 116 -149 149 -48 25 -171 35 -224 19z"/>
<path d="M753 2330 c-85 -20 -157 -87 -197 -184 -19 -48 -21 -73 -24 -385 -2
-184 -1 -345 2 -357 3 -12 19 -27 35 -34 36 -14 67 -1 81 36 6 14 10 162 10
332 0 183 4 322 11 345 14 51 63 104 107 118 21 5 73 9 117 7 l80 -3 5 -198
c5 -214 6 -217 62 -217 56 0 58 9 58 271 0 302 14 279 -177 278 -76 -1 -152
-4 -170 -9z"/>
<path d="M1340 2320 c-23 -23 -26 -58 -6 -85 11 -16 31 -21 100 -25 102 -7
129 -23 166 -96 l25 -49 0 -355 c0 -195 -3 -367 -7 -382 -13 -45 -56 -87 -96
-94 -61 -10 -69 -13 -80 -40 -9 -18 -12 -161 -12 -493 0 -459 0 -469 21 -495
l20 -26 390 0 c376 0 390 1 409 20 19 19 20 33 20 508 0 461 -1 490 -18 505
-10 10 -33 17 -51 17 -59 0 -100 25 -122 75 -19 43 -20 63 -17 412 3 350 4
370 24 407 38 73 56 80 224 86 164 6 190 15 190 71 0 50 -28 59 -175 59 -162
0 -219 -15 -282 -73 -100 -92 -113 -155 -113 -569 0 -197 4 -337 11 -370 13
-61 42 -122 73 -156 24 -27 87 -62 111 -62 13 0 15 -47 15 -405 l0 -405 -300
0 -300 0 0 404 0 404 36 12 c57 19 111 82 134 157 18 60 20 93 20 422 0 389
-4 424 -57 510 -31 50 -104 105 -161 121 -20 5 -67 10 -104 10 -55 0 -72 -4
-88 -20z"/>
<path d="M2761 2321 c-20 -20 -21 -31 -21 -223 0 -112 4 -208 8 -214 9 -13 46
-34 62 -34 6 0 22 11 35 25 24 24 25 28 25 181 l0 157 36 -6 c46 -8 80 -30
104 -69 34 -57 42 -149 38 -480 -3 -302 -4 -315 -26 -359 -23 -48 -54 -69
-101 -69 -16 0 -37 -10 -49 -23 -22 -23 -22 -24 -22 -503 0 -418 2 -482 16
-502 l15 -22 399 0 399 0 15 22 c14 20 16 84 16 503 l0 482 -23 21 c-14 13
-36 22 -56 22 -45 0 -88 25 -108 63 -16 29 -18 67 -18 402 l0 370 25 50 c14
28 40 60 59 72 31 21 46 23 171 23 155 0 183 10 183 65 0 55 -28 65 -177 65
-163 0 -220 -15 -282 -72 -54 -49 -90 -122 -104 -208 -15 -96 -13 -660 3 -736
18 -83 59 -149 115 -185 25 -16 54 -29 64 -29 17 0 18 -21 18 -405 l0 -405
-300 0 -300 0 0 403 1 402 49 23 c59 28 105 85 126 159 13 43 15 116 12 435
l-3 383 -26 55 c-58 122 -131 171 -270 178 -78 4 -89 2 -108 -17z"/>
<path d="M4180 2320 c-11 -11 -20 -31 -20 -45 0 -47 32 -65 114 -65 88 0 127
-21 166 -90 25 -45 25 -45 30 -381 5 -369 5 -369 66 -369 62 0 64 8 64 340 0
215 -4 313 -14 361 -39 182 -142 269 -318 269 -55 0 -72 -4 -88 -20z"/>
<path d="M761 1213 c-21 -18 -21 -23 -24 -463 l-2 -445 -85 -3 c-94 -3 -120
-17 -120 -62 0 -52 23 -60 167 -60 113 0 132 2 146 18 15 17 17 67 17 510 l0
491 -22 15 c-29 21 -51 20 -77 -1z"/>
<path d="M3992 1207 c-28 -30 -28 -58 1 -85 21 -20 34 -22 150 -22 l127 0 0
-443 c0 -417 1 -445 18 -460 15 -14 41 -17 144 -17 137 0 158 8 158 62 0 44
-28 58 -113 58 l-77 0 0 440 0 441 -25 24 c-24 25 -27 25 -193 25 -163 0 -169
-1 -190 -23z"/>
</g>
</svg>
